# xmcd
#
# Track frame offsets:
#	150
#	18493
#	31887
#	60820
#	71241
#	92760
#	110336
#	121317
#	133240
#	156239
#	178806
#	190390
#	200154
#	208024
#	218468
#	231903
#	242316
#	256695
#	267152
#	282700
#	296406
#
# Disc length: 4142 seconds
#
# Revision: 1
# Processed by: cddbd v1.5PL3 Copyright (c) Steve Scherf et al.
# Submitted via: audiograbber 1.82.02
#
DISCID=3a102c15
DTITLE=Ivory, King - Beating The Odds
DYEAR=1900
DGENRE=Blues
TTITLE0=The Bitch Done Quit Me
TTITLE1=Look Good Woman
TTITLE2=Can't Help But To Love You
TTITLE3=Find Yourself A Job
TTITLE4=Sweet Black Woman
TTITLE5=Little Red Rooster
TTITLE6=Alley Oop
TTITLE7=C' Mon, Don't You Wanta Go
TTITLE8=Let's Have A Good Time
TTITLE9=Shake, Rattle and Roll
TTITLE10=You Don't Love Me Anymore (featuring Hop Wilson)
TTITLE11=Rockin' In The Coconut Top (featuring Hop Wilson)
TTITLE12=Almost Gone (featuring Big H. Williams)
TTITLE13=Louisiana Slo - Drag (featuring Lonnie Mitchell)
TTITLE14=War Is Starting Again (featuring Lightnin' Hopkins)
TTITLE15=Do What You Did Yesterday (featuring Helen Wilson)
TTITLE16=Betty (featuring Elliott Wilson)
TTITLE17=Boogie Children (featuring D. C. Bender)
TTITLE18=Just You and I (featuring Earl Gilliam)
TTITLE19=Roosevelt In The Alley (featuring Roosevelt Hopes)
TTITLE20=Vincent's Blues (featuring Vincent Franks)
EXTD=
EXTT0=
EXTT1=
EXTT2=
EXTT3=
EXTT4=
EXTT5=
EXTT6=
EXTT7=
EXTT8=
EXTT9=
EXTT10=
EXTT11=
EXTT12=
EXTT13=
EXTT14=
EXTT15=
EXTT16=
EXTT17=
EXTT18=
EXTT19=
EXTT20=
PLAYORDER=
